<svg width="3400" height="4200" viewBox="0 0 3400 4200" fill="none" xmlns="http://www.w3.org/2000/svg">
  <rect width="3400" height="4200" fill="#0A0A0A"/>

  <text x="80" y="80" fill="#FFFFFF" font-family="Arial" font-size="36" font-weight="700">NPO Melodiya - Figma Layout (Import SVG)</text>

  <g id="desktop-frame" transform="translate(80,140)">
    <rect x="0" y="0" width="1440" height="3900" rx="24" fill="#0F0F10" stroke="#2A2A2D" stroke-width="2"/>
    <text x="40" y="56" fill="#9EA0A6" font-family="Arial" font-size="24">Desktop 1440</text>

    <rect x="40" y="90" width="1360" height="84" rx="16" fill="#151517" stroke="#343438"/>
    <text x="72" y="143" fill="#FFFFFF" font-family="Arial" font-size="30" font-weight="700">НПО Мелодия</text>
    <text x="970" y="143" fill="#AEB2BA" font-family="Arial" font-size="18">Ивенты  Календарь  Артисты  Релизы  Трансляции</text>

    <rect x="40" y="210" width="1360" height="760" rx="20" fill="#0B0B0C" stroke="#2D2D31"/>
    <text x="72" y="270" fill="#8AE5E0" font-family="Arial" font-size="24">INTRO / HERO IMAGE (npo_print_source.png or smile.png)</text>
    <rect x="72" y="300" width="1296" height="620" rx="12" fill="#111214" stroke="#2D2D31" stroke-dasharray="10 8"/>
    <text x="500" y="630" fill="#8AE5E0" font-family="Arial" font-size="48" font-weight="700">FULLSCREEN IMAGE BLOCK</text>

    <text x="40" y="1050" fill="#FFFFFF" font-family="Arial" font-size="34" font-weight="700">АФИША</text>
    <g transform="translate(40,1080)">
      <rect x="0" y="0" width="320" height="420" rx="16" fill="#17181B" stroke="#303238"/>
      <rect x="346" y="0" width="320" height="420" rx="16" fill="#17181B" stroke="#303238"/>
      <rect x="692" y="0" width="320" height="420" rx="16" fill="#17181B" stroke="#303238"/>
      <rect x="1038" y="0" width="320" height="420" rx="16" fill="#17181B" stroke="#303238"/>
      <text x="32" y="210" fill="#9EA0A6" font-family="Arial" font-size="20">Event Card 1</text>
      <text x="378" y="210" fill="#9EA0A6" font-family="Arial" font-size="20">Event Card 2</text>
      <text x="724" y="210" fill="#9EA0A6" font-family="Arial" font-size="20">Event Card 3</text>
      <text x="1070" y="210" fill="#9EA0A6" font-family="Arial" font-size="20">Event Card 4</text>
    </g>

    <text x="40" y="1580" fill="#FFFFFF" font-family="Arial" font-size="34" font-weight="700">КАЛЕНДАРЬ</text>
    <rect x="40" y="1610" width="860" height="520" rx="16" fill="#17181B" stroke="#303238"/>
    <rect x="920" y="1610" width="480" height="520" rx="16" fill="#17181B" stroke="#303238"/>
    <text x="80" y="1670" fill="#9EA0A6" font-family="Arial" font-size="20">Calendar Grid</text>
    <text x="960" y="1670" fill="#9EA0A6" font-family="Arial" font-size="20">Selected Day / Events</text>

    <text x="40" y="2210" fill="#FFFFFF" font-family="Arial" font-size="34" font-weight="700">АРТИСТЫ</text>
    <g transform="translate(40,2240)">
      <rect x="0" y="0" width="436" height="360" rx="16" fill="#17181B" stroke="#303238"/>
      <rect x="462" y="0" width="436" height="360" rx="16" fill="#17181B" stroke="#303238"/>
      <rect x="924" y="0" width="436" height="360" rx="16" fill="#17181B" stroke="#303238"/>
    </g>

    <text x="40" y="2680" fill="#FFFFFF" font-family="Arial" font-size="34" font-weight="700">РЕЛИЗЫ И ПОДКАСТЫ</text>
    <rect x="40" y="2710" width="1360" height="380" rx="16" fill="#17181B" stroke="#303238"/>
    <text x="72" y="2770" fill="#9EA0A6" font-family="Arial" font-size="20">Releases Grid + Podcasts Block</text>

    <text x="40" y="3170" fill="#FFFFFF" font-family="Arial" font-size="34" font-weight="700">ТРАНСЛЯЦИИ</text>
    <rect x="40" y="3200" width="670" height="300" rx="16" fill="#17181B" stroke="#303238"/>
    <rect x="730" y="3200" width="670" height="300" rx="16" fill="#17181B" stroke="#303238"/>

    <text x="40" y="3570" fill="#FFFFFF" font-family="Arial" font-size="34" font-weight="700">МЕРЧ + КОНТАКТЫ + FOOTER</text>
    <rect x="40" y="3600" width="1360" height="250" rx="16" fill="#17181B" stroke="#303238"/>
  </g>

  <g id="mobile-frame" transform="translate(1700,140)">
    <rect x="0" y="0" width="430" height="3900" rx="28" fill="#0F0F10" stroke="#2A2A2D" stroke-width="2"/>
    <text x="36" y="56" fill="#9EA0A6" font-family="Arial" font-size="24">Mobile 390</text>

    <rect x="20" y="90" width="390" height="72" rx="14" fill="#151517" stroke="#343438"/>
    <text x="38" y="136" fill="#FFFFFF" font-family="Arial" font-size="24" font-weight="700">НПО Мелодия</text>

    <rect x="20" y="190" width="390" height="560" rx="16" fill="#0B0B0C" stroke="#2D2D31"/>
    <text x="40" y="240" fill="#8AE5E0" font-family="Arial" font-size="20">INTRO IMAGE</text>

    <text x="20" y="820" fill="#FFFFFF" font-family="Arial" font-size="26" font-weight="700">АФИША</text>
    <rect x="20" y="850" width="390" height="330" rx="14" fill="#17181B" stroke="#303238"/>
    <rect x="20" y="1200" width="390" height="330" rx="14" fill="#17181B" stroke="#303238"/>

    <text x="20" y="1590" fill="#FFFFFF" font-family="Arial" font-size="26" font-weight="700">КАЛЕНДАРЬ</text>
    <rect x="20" y="1620" width="390" height="420" rx="14" fill="#17181B" stroke="#303238"/>

    <text x="20" y="2100" fill="#FFFFFF" font-family="Arial" font-size="26" font-weight="700">АРТИСТЫ</text>
    <rect x="20" y="2130" width="390" height="300" rx="14" fill="#17181B" stroke="#303238"/>
    <rect x="20" y="2450" width="390" height="300" rx="14" fill="#17181B" stroke="#303238"/>

    <text x="20" y="2810" fill="#FFFFFF" font-family="Arial" font-size="26" font-weight="700">РЕЛИЗЫ / СТРИМЫ / МЕРЧ</text>
    <rect x="20" y="2840" width="390" height="520" rx="14" fill="#17181B" stroke="#303238"/>

    <text x="20" y="3410" fill="#FFFFFF" font-family="Arial" font-size="26" font-weight="700">КОНТАКТЫ</text>
    <rect x="20" y="3440" width="390" height="330" rx="14" fill="#17181B" stroke="#303238"/>
  </g>

  <g transform="translate(2200,180)">
    <rect x="0" y="0" width="1080" height="500" rx="18" fill="#111214" stroke="#2F3138"/>
    <text x="30" y="56" fill="#FFFFFF" font-family="Arial" font-size="28" font-weight="700">UI Tokens</text>
    <text x="30" y="110" fill="#AEB2BA" font-family="Arial" font-size="20">Background: #0A0A0A</text>
    <text x="30" y="145" fill="#AEB2BA" font-family="Arial" font-size="20">Card: rgba(8,8,8,0.42)</text>
    <text x="30" y="180" fill="#AEB2BA" font-family="Arial" font-size="20">Text: #FFFFFF / Muted: rgba(255,255,255,0.72)</text>
    <text x="30" y="215" fill="#AEB2BA" font-family="Arial" font-size="20">Accent image: smile.png / npo_print_source.png</text>
    <text x="30" y="250" fill="#AEB2BA" font-family="Arial" font-size="20">Radius: 18, Buttons: pill 999</text>
    <text x="30" y="285" fill="#AEB2BA" font-family="Arial" font-size="20">Font: ISOCP EUR Italic</text>
    <text x="30" y="350" fill="#8AE5E0" font-family="Arial" font-size="20">Import: File -&gt; Place Image / drag this SVG into Figma</text>
  </g>
</svg>
